<svg version="1.0"
    xmlns="http://www.w3.org/2000/svg" width="500.000000pt" height="500.000000pt" viewBox="0 0 500.000000 500.000000" preserveAspectRatio="xMidYMid meet">

    <g transform="translate(0.000000,500.000000) scale(0.100000,-0.100000)" fill="#000000" stroke="none">
        <path d="M370 2500 l0 -1470 2130 0 2130 0 0 1470 0 1470 -2130 0 -2130 0 0
-1470z m4210 1255 l0 -175 -2080 0 -2080 0 0 175 0 175 2080 0 2080 0 0 -175z
m0 -1255 l0 -1030 -2080 0 -2080 0 0 1030 0 1030 2080 0 2080 0 0 -1030z m0
-1255 l0 -175 -2080 0 -2080 0 0 175 0 175 2080 0 2080 0 0 -175z"/>
        <path d="M1718 3799 c-39 -22 -16 -59 37 -59 13 0 27 -5 31 -12 5 -8 -5 -9
-34 -5 -43 5 -66 -8 -41 -24 40 -25 119 -1 119 36 0 18 -11 24 -62 35 l-43 9
48 -3 c33 -3 47 0 47 9 0 25 -68 34 -102 14z"/>
        <path d="M1890 3795 c0 -8 7 -15 15 -15 10 0 15 -10 15 -30 0 -20 -5 -30 -15
-30 -8 0 -15 -7 -15 -15 0 -11 12 -15 50 -15 38 0 50 4 50 15 0 8 -7 15 -15
15 -10 0 -15 10 -15 30 0 20 5 30 15 30 8 0 15 7 15 15 0 11 -12 15 -50 15
-38 0 -50 -4 -50 -15z"/>
        <path d="M2040 3750 c0 -53 2 -60 20 -60 17 0 20 7 20 43 l0 42 20 -42 c16
-37 23 -43 50 -43 l30 0 0 60 c0 53 -2 60 -20 60 -17 0 -20 -7 -21 -42 l0 -43
-19 43 c-17 36 -23 42 -50 42 l-30 0 0 -60z"/>
        <path d="M2262 3794 c-27 -19 -29 -64 -4 -87 22 -20 71 -22 96 -4 16 12 16 15
3 26 -10 8 -17 9 -22 1 -9 -15 -52 -12 -59 5 -12 32 5 47 45 41 42 -7 60 7 30
23 -28 15 -63 13 -89 -5z"/>
        <path d="M2440 3750 l0 -60 60 0 c47 0 60 3 60 15 0 11 -13 15 -47 17 l-48 1
43 4 c57 6 59 33 2 33 -22 0 -40 5 -40 10 0 6 20 10 45 10 33 0 45 4 45 15 0
12 -13 15 -60 15 l-60 0 0 -60z"/>
        <path d="M2715 3790 c-22 -24 -12 -39 15 -22 23 14 50 16 50 3 0 -5 -14 -14
-30 -21 -27 -11 -50 -36 -50 -54 0 -3 24 -6 54 -6 39 0 55 4 60 15 4 12 -3 15
-32 15 l-37 1 33 14 c40 18 52 43 27 61 -27 20 -69 17 -90 -6z"/>
        <path d="M2900 3790 c-11 -11 -20 -29 -20 -40 0 -49 79 -79 114 -44 22 21 20
67 -2 87 -25 23 -68 21 -92 -3z m75 -40 c0 -18 -6 -26 -23 -28 -13 -2 -25 3
-28 12 -10 26 4 48 28 44 17 -2 23 -10 23 -28z"/>
        <path d="M3098 3799 c-22 -12 -24 -39 -3 -39 8 0 15 5 15 10 0 6 9 10 20 10
25 0 26 -18 3 -27 -26 -9 -53 -34 -53 -50 0 -9 16 -13 55 -13 42 0 55 3 55 15
0 10 -10 15 -32 15 l-33 1 33 14 c33 15 42 41 20 63 -15 15 -57 15 -80 1z"/>
        <path d="M3283 3776 c-44 -45 -43 -66 2 -66 19 0 35 -4 35 -10 0 -16 28 -12
50 7 24 21 26 33 5 33 -10 0 -15 11 -15 35 0 30 -3 35 -22 35 -13 0 -38 -15
-55 -34z m37 -21 c0 -8 -7 -15 -15 -15 -13 0 -14 3 -3 15 16 18 18 18 18 0z"/>
        <path d="M1318 3293 l-38 -4 0 -350 0 -349 213 0 c226 0 311 11 386 50 64 32
118 86 148 148 25 52 28 67 28 162 0 88 -4 114 -23 156 -43 95 -133 155 -270
180 -72 12 -349 17 -444 7z m418 -198 c51 -21 78 -87 71 -172 -9 -114 -49
-143 -197 -143 l-90 0 0 158 c0 87 3 162 7 165 13 13 173 7 209 -8z"/>
        <path d="M2140 2945 l0 -355 375 0 375 0 0 90 0 90 -265 0 -265 0 0 45 0 45
228 2 227 3 3 83 3 82 -231 0 -230 0 0 45 0 45 265 0 264 0 3 83 3 82 93 -220
c51 -121 114 -277 140 -347 l47 -128 143 0 c105 0 144 3 147 13 28 82 95 254
172 437 52 124 97 233 100 243 5 16 -4 17 -122 15 l-127 -3 -43 -120 c-99
-278 -123 -339 -129 -325 -3 8 -37 103 -76 210 -39 107 -75 205 -80 217 l-9
23 -506 0 -505 0 0 -355z"/>
        <path d="M1918 2433 c-26 -31 -29 -42 -18 -63 19 -35 48 -44 78 -23 15 10 45
20 67 23 56 7 55 34 -1 38 -26 2 -49 11 -59 23 -22 24 -47 24 -67 2z m48 -34
c10 -17 -13 -36 -27 -22 -12 12 -4 33 11 33 5 0 12 -5 16 -11z"/>
        <path d="M2124 2437 c-3 -8 -4 -53 -2 -101 l3 -88 49 -19 c101 -38 151 -125
126 -218 -19 -72 -71 -118 -153 -135 l-28 -7 3 -102 c3 -96 4 -102 25 -105 16
-2 24 4 32 31 9 26 20 36 48 45 31 10 40 8 65 -9 l29 -21 35 27 c31 24 34 30
28 60 -4 24 -1 43 12 64 15 26 25 31 55 31 34 0 37 3 48 42 13 40 12 43 -13
65 -37 31 -36 89 1 119 26 20 26 23 15 63 -12 38 -16 41 -47 41 -47 0 -79 41
-71 92 6 33 3 39 -29 63 l-35 27 -26 -20 c-38 -27 -90 -11 -112 35 -16 34 -48
45 -58 20z"/>
        <path d="M1130 2417 c-124 -30 -199 -87 -246 -190 -25 -55 -29 -73 -29 -162 0
-168 52 -264 172 -318 163 -73 425 -55 545 36 41 32 97 101 98 122 0 6 -44 31
-98 56 l-98 46 -22 -33 c-35 -53 -74 -69 -172 -69 -104 0 -144 19 -178 85 -42
81 -21 170 52 224 23 17 42 21 109 21 90 -1 129 -15 182 -66 l31 -29 97 42
c53 23 97 45 97 49 0 17 -68 95 -105 121 -69 48 -148 70 -270 74 -68 2 -131
-1 -165 -9z"/>
        <path d="M2568 2413 l-38 -4 0 -350 0 -349 213 0 c232 0 310 11 394 53 66 34
126 101 153 173 30 79 25 223 -10 296 -43 93 -131 149 -269 174 -71 12 -348
17 -443 7z m422 -201 c20 -10 42 -32 52 -52 23 -44 23 -136 2 -189 -22 -56
-59 -71 -178 -71 l-96 0 0 158 c0 87 3 162 7 165 3 4 45 7 92 7 62 0 96 -5
121 -18z"/>
        <path d="M3390 2065 l0 -355 374 0 375 0 3 90 3 90 -267 0 -268 0 0 45 0 45
228 2 227 3 3 83 3 82 -231 0 -230 0 0 45 0 45 265 0 265 0 0 90 0 90 -375 0
-375 0 0 -355z"/>
        <path d="M1772 2313 c-25 -10 -34 -53 -17 -79 18 -28 65 -33 85 -9 10 11 36
15 111 15 l99 0 0 -45 0 -45 55 0 c48 0 55 2 55 20 0 16 -7 20 -35 20 -35 0
-35 0 -35 45 l0 45 -115 0 c-102 0 -117 2 -135 20 -20 20 -42 24 -68 13z m44
-44 c3 -6 2 -15 -2 -19 -12 -12 -38 5 -30 19 9 14 23 14 32 0z"/>
        <path d="M1900 2166 c0 -26 -1 -26 -75 -26 -45 0 -75 4 -75 10 0 6 -12 15 -26
21 -62 23 -104 -61 -49 -97 21 -14 31 -15 50 -6 14 7 25 16 25 22 0 6 37 10
96 10 l95 0 -3 42 c-2 31 -8 44 -20 46 -13 3 -18 -3 -18 -22z m-184 -37 c8
-14 -11 -33 -25 -25 -11 7 -4 36 9 36 5 0 12 -5 16 -11z"/>
        <path d="M1966 2094 c-9 -8 -16 -26 -16 -39 0 -51 61 -73 95 -35 15 17 31 20
97 20 63 0 78 3 78 15 0 12 -15 15 -73 15 -60 0 -78 4 -97 20 -28 24 -63 26
-84 4z m54 -39 c0 -8 -7 -15 -15 -15 -8 0 -15 7 -15 15 0 8 7 15 15 15 8 0 15
-7 15 -15z"/>
        <path d="M1847 2023 c-4 -3 -7 -19 -7 -35 0 -35 -27 -38 -69 -8 -22 17 -32 19
-54 11 -48 -18 -45 -91 4 -106 14 -5 31 0 50 14 18 13 43 21 69 21 39 0 40 1
40 35 0 28 4 35 20 35 13 0 20 7 20 20 0 16 -7 20 -33 20 -19 0 -37 -3 -40 -7z
m-94 -78 c8 -18 -11 -31 -25 -17 -11 11 -3 32 12 32 4 0 10 -7 13 -15z"/>
        <path d="M2050 1925 c0 -60 -13 -70 -45 -35 -20 22 -46 25 -76 10 -22 -12 -27
-68 -7 -88 17 -17 63 -15 78 2 6 8 28 16 48 18 l37 3 3 53 3 52 35 0 c27 0 34
4 34 20 0 18 -7 20 -55 20 l-55 0 0 -55z m-70 -70 c0 -8 -6 -15 -14 -15 -17 0
-28 14 -19 24 12 12 33 6 33 -9z"/>
        <path d="M1822 1778 c-18 -18 -14 -63 6 -81 25 -23 55 -21 77 3 12 13 31 20
57 20 36 0 38 -2 38 -30 0 -28 2 -30 38 -30 21 0 41 3 45 6 11 11 -5 34 -24
34 -14 0 -19 7 -19 30 l0 30 -61 0 c-40 0 -65 5 -75 15 -18 18 -65 20 -82 3z
m58 -43 c0 -8 -6 -15 -14 -15 -17 0 -28 14 -19 24 12 12 33 6 33 -9z"/>
        <path d="M1086 1294 c-9 -8 -16 -19 -16 -23 0 -17 26 -31 57 -31 18 0 33 -5
33 -11 0 -8 -14 -10 -39 -6 -28 3 -41 1 -45 -8 -6 -16 15 -25 55 -25 41 0 69
17 69 40 0 23 -13 31 -60 41 -34 8 -34 8 9 6 47 -2 67 16 29 27 -40 10 -76 7
-92 -10z"/>
        <path d="M1287 1292 c-22 -24 -21 -65 1 -85 40 -37 122 -7 122 43 0 52 -88 81
-123 42z m78 -42 c0 -20 -6 -26 -28 -28 -18 -2 -29 2 -33 12 -11 28 4 48 33
44 22 -2 28 -8 28 -28z"/>
        <path d="M1470 1250 c0 -47 3 -60 15 -60 8 0 15 9 15 20 0 17 7 20 45 20 33 0
45 4 45 15 0 11 -12 15 -45 15 -25 0 -45 5 -45 10 0 6 20 10 45 10 33 0 45 4
45 15 0 12 -13 15 -60 15 l-60 0 0 -60z"/>
        <path d="M1642 1298 c3 -7 14 -14 26 -16 19 -3 22 -10 22 -48 0 -40 2 -44 25
-44 23 0 25 4 25 44 0 38 3 45 22 48 12 2 23 9 26 16 3 9 -16 12 -73 12 -57 0
-76 -3 -73 -12z"/>
        <path d="M1844 1280 c3 -16 9 -43 12 -60 4 -23 11 -30 30 -30 17 0 24 6 24 20
0 11 5 20 10 20 6 0 10 -9 10 -20 0 -14 7 -20 24 -20 21 0 26 7 35 50 15 68
14 70 -9 70 -16 0 -20 -7 -21 -32 l-1 -33 -9 33 c-7 22 -16 32 -29 32 -13 0
-22 -10 -29 -32 l-9 -33 -1 33 c-1 25 -5 32 -22 32 -18 0 -20 -4 -15 -30z"/>
        <path d="M2086 1302 c-2 -4 -13 -31 -24 -60 -19 -50 -19 -52 -2 -52 11 0 22 5
25 10 3 6 17 10 30 10 13 0 27 -4 30 -10 3 -5 15 -10 27 -10 15 0 18 4 13 18
-4 9 -14 36 -22 60 -13 36 -19 42 -43 42 -16 0 -31 -3 -34 -8z m44 -54 c0 -5
-6 -8 -14 -8 -9 0 -12 7 -9 21 4 16 8 17 14 7 5 -7 9 -16 9 -20z"/>
        <path d="M2250 1250 c0 -47 3 -60 15 -60 8 0 15 9 15 20 0 11 7 20 15 20 8 0
19 -9 25 -20 6 -11 20 -20 31 -20 17 0 18 3 8 22 -9 16 -9 23 0 26 17 6 13 59
-5 66 -9 3 -36 6 -60 6 l-44 0 0 -60z m90 20 c0 -5 -13 -10 -30 -10 -16 0 -30
5 -30 10 0 6 14 10 30 10 17 0 30 -4 30 -10z"/>
        <path d="M2440 1250 l0 -60 60 0 c47 0 60 3 60 15 0 11 -13 15 -47 17 l-48 1
43 4 c57 6 59 33 2 33 -22 0 -40 5 -40 10 0 6 20 10 45 10 33 0 45 4 45 15 0
12 -13 15 -60 15 l-60 0 0 -60z"/>
        <path d="M2720 1290 c-11 -11 -20 -29 -20 -40 0 -49 73 -78 116 -45 16 12 17
16 5 24 -9 6 -21 5 -31 -1 -24 -15 -50 -3 -50 22 0 25 26 37 50 22 10 -6 22
-7 31 -1 12 8 11 12 -5 24 -28 21 -72 19 -96 -5z"/>
        <path d="M2918 1299 c-12 -7 -18 -22 -18 -49 0 -43 18 -60 65 -60 47 0 65 17
65 60 0 29 -5 42 -19 50 -25 13 -71 12 -93 -1z m77 -49 c0 -20 -6 -26 -28 -28
-29 -4 -44 16 -33 44 4 10 15 14 33 12 22 -2 28 -8 28 -28z"/>
        <path d="M3100 1266 c0 -24 -3 -51 -6 -60 -5 -12 0 -16 19 -16 19 0 27 6 30
23 l4 22 2 -23 c2 -37 44 -26 52 13 l7 30 1 -32 c1 -26 5 -33 21 -33 22 0 25
16 14 83 -6 32 -10 37 -35 37 -24 0 -28 -4 -32 -32 l-3 -33 -8 33 c-7 27 -13
32 -37 32 -28 0 -29 -2 -29 -44z"/>
        <path d="M3320 1250 c0 -47 3 -60 15 -60 8 0 15 7 15 15 0 10 10 15 34 15 35
0 66 21 66 45 0 28 -31 45 -81 45 l-49 0 0 -60z m90 15 c0 -10 -10 -15 -30
-15 -20 0 -30 5 -30 15 0 10 10 15 30 15 20 0 30 -5 30 -15z"/>
        <path d="M3502 1250 c-21 -59 -21 -60 -2 -60 11 0 20 5 20 10 0 6 13 10 29 10
17 0 33 -4 36 -10 3 -5 15 -10 25 -10 18 0 18 2 -3 60 -20 55 -24 60 -53 60
-28 0 -32 -4 -52 -60z m56 -9 c-15 -5 -19 4 -11 24 6 18 7 18 13 -1 4 -10 3
-21 -2 -23z"/>
        <path d="M3680 1250 c0 -53 2 -60 20 -60 17 0 20 7 20 43 l0 42 20 -42 c16
-37 23 -43 50 -43 l30 0 0 60 c0 53 -2 60 -20 60 -17 0 -20 -7 -21 -42 l0 -43
-19 43 c-17 36 -23 42 -50 42 l-30 0 0 -60z"/>
        <path d="M3870 1305 c0 -3 11 -23 25 -45 14 -22 25 -46 25 -55 0 -8 9 -15 20
-15 12 0 20 7 20 18 0 9 11 36 25 60 l24 42 -23 0 c-15 0 -27 -9 -35 -27 l-13
-28 -14 28 c-9 15 -23 27 -34 27 -11 0 -20 -2 -20 -5z"/>
    </g>
</svg>
